<svg version="1" xmlns="http://www.w3.org/2000/svg" width="325.333" height="325.333" viewBox="0 0 244.000000 244.000000"><path d="M106.5 1.1C44.9 9.5-1.3 64.7 1.3 126.5c.9 19.5 4.4 33.1 13.3 50.5 12.6 24.8 31.4 43.3 55.9 55.1 60.2 29 134 2.5 162.5-58.3 12.9-27.7 14.4-65.5 3.6-94.1-14.9-39.6-49.3-69.2-90-77.3-9.2-1.8-31.2-2.6-40.1-1.3zM183.4 41c2.3 1.1 5.6 3.4 7.5 4.9l3.3 2.9-11.1 16.4-11 16.3 4.2 3.4c2.3 1.9 8.1 7.3 12.8 12 9.6 9.6 14.1 17.5 16 27.6 2.7 14.7-3.8 36.5-13.9 46.3-4.7 4.5-13.6 10.2-14.6 9.2-.2-.3.2-3 1-6 2.7-10.3 1.3-17.8-4.2-24-11.3-12.5-31-10.2-40.5 4.8-7.4 11.7-3.5 22.7 12.4 35.4l4.9 3.8-2.9 1.1c-6 2.3-16.4 3.1-35.3 2.6-20.6-.5-29.1-1.6-49.1-6.7-16.5-4.2-21.2-6.1-22.7-9.2-1.1-2.3-.6-4.3 3.7-17.5 2.8-8.2 7.3-24.4 10.1-35.9s6.2-24.3 7.6-28.5c6.3-19.2 19.3-32.5 37.7-38.6 6.9-2.2 9.9-2.6 19.2-2.6 12.8-.1 20.8 2.3 32.4 9.2 3.7 2.3 7.4 4.1 8.3 4.1 3.7 0 6.1-5.6 9.9-22.7 2.1-10 6.2-12.3 14.3-8.3z"/></svg>